<?xml version="1.0" encoding="UTF-8" standalone="no"?>
<!-- Created with Inkscape (http://www.inkscape.org/) -->

<svg
   xmlns:dc="http://purl.org/dc/elements/1.1/"
   xmlns:cc="http://creativecommons.org/ns#"
   xmlns:rdf="http://www.w3.org/1999/02/22-rdf-syntax-ns#"
   xmlns:svg="http://www.w3.org/2000/svg"
   xmlns="http://www.w3.org/2000/svg"
   xmlns:sodipodi="http://sodipodi.sourceforge.net/DTD/sodipodi-0.dtd"
   xmlns:inkscape="http://www.inkscape.org/namespaces/inkscape"
   width="210mm"
   height="297mm"
   viewBox="0 0 210 297"
   id="svg5571"
   version="1.1"
   inkscape:version="0.91+devel+osxmenu r12922"
   sodipodi:docname="drawing.svg">
  <defs
     id="defs5573" />
  <sodipodi:namedview
     id="base"
     pagecolor="#ffffff"
     bordercolor="#666666"
     borderopacity="1.0"
     inkscape:pageopacity="0.0"
     inkscape:pageshadow="2"
     inkscape:zoom="0.45477573"
     inkscape:cx="313.27052"
     inkscape:cy="619.38249"
     inkscape:document-units="mm"
     inkscape:current-layer="layer2"
     showgrid="false"
     inkscape:window-width="1440"
     inkscape:window-height="814"
     inkscape:window-x="0"
     inkscape:window-y="23"
     inkscape:window-maximized="0" />
  <metadata
     id="metadata5576">
    <rdf:RDF>
      <cc:Work
         rdf:about="">
        <dc:format>image/svg+xml</dc:format>
        <dc:type
           rdf:resource="http://purl.org/dc/dcmitype/StillImage" />
        <dc:title></dc:title>
      </cc:Work>
    </rdf:RDF>
  </metadata>
  <g
     inkscape:label="Layer 1"
     inkscape:groupmode="layer"
     id="layer1"
     style="display:none">
    <path
       style="fill:#666666;fill-opacity:1;stroke:none;stroke-width:0.86857224"
       inkscape:connector-curvature="0"
       d="m 121.16602,24.064182 c 0.8936,-1.44237 0.63641,-1.65183 0.90131,-2.44069 -0.78716,-1.0696 -1.73749,-2.26004 -1.58566,-3.6975 -2.36506,2.88688 -3.03539,7.26738 -3.50602,11.27582 1.06131,1.34788 2.18118,1.25421 3.54677,2.08096 -1.14113,0.33073 -2.65755,-0.43399 -3.63479,-1.31836 -0.0619,0.54578 -0.1226,1.08193 -0.18446,1.60241 -0.42913,3.59129 0.8412,7.343682 0.84756,10.873112 0.43748,1.28712 1.36375,1.93279 2.9803,1.90065 -1.03611,0.42056 -2.12437,0.24496 -3.04156,-0.59942 -0.0143,0.13519 -0.0296,0.26979 -0.0497,0.40133 -0.52904,3.77078 -2.18407,12.09625 3.95271,8.70137 3.14088,-1.7409 6.8449,-10.53291 6.8449,-10.53291 0,0 -3.07808,0.87448 -4.43397,1.15206 1.96474,-0.54406 3.63676,-1.54965 4.72959,-3.40132 0.0229,-0.4368 0.0265,-0.86764 0.004,-1.28571 -0.0913,-1.64263 -0.74244,-3.612772 -1.3363,-5.341782 -0.67783,0.9566 -1.71566,1.31559 -2.98593,1.44685 1.06743,-0.54394 1.98903,-1.49567 2.54134,-2.62799 l 0.0438,0.0153 c -0.0422,-0.12907 -0.084,-0.25541 -0.12457,-0.37716 -1.28149,-3.91751 -1.70077,-6.21133 -3.93233,-9.3907 -1.29423,1.08574 -1.23623,1.01239 -1.57699,1.56369 z"
       id="path6142" />
    <path
       sodipodi:nodetypes="cccccccccccc"
       style="fill:#666666;fill-opacity:1;stroke:none;stroke-width:0.86857224"
       inkscape:connector-curvature="0"
       d="m 112.21217,61.569444 c 5.05696,-1.90224 5.91771,-7.78892 5.91771,-7.78892 1.39767,-3.18979 3.09488,-6.23452 4.07541,-9.6312 0.99688,-3.37814 1.19111,-7.1204 0.67212,-10.856332 -0.25375,-1.86783 -0.67282,-3.73434 -1.20388,-5.57604 -0.51954,-1.84543 -1.20433,-3.65121 -1.78586,-5.49034 0.68261,1.80263 1.46761,3.56822 2.09434,5.4019 0.63954,1.82742 1.17305,3.70044 1.54177,5.60584 0.74907,3.803022 0.79516,7.766732 -0.0539,11.440742 -0.84148,3.66484 -3.33183,5.76567 -4.44827,9.27064 -2.44342,6.52079 -4.21709,6.70218 -6.07567,8.23916 z"
       id="path6144" />
    <path
       id="path6146"
       d="m 103.07324,56.006784 c -0.89361,1.44237 -0.63641,1.65184 -0.90132,2.44071 0.78716,1.06958 1.73749,2.26002 1.58565,3.69748 2.36507,-2.88688 3.03541,-7.26737 3.50604,-11.27581 -1.06132,-1.34789 -2.18119,-1.25422 -3.54678,-2.08096 1.14114,-0.33074 2.65755,0.43399 3.63478,1.31835 0.0619,-0.54578 0.1226,-1.08192 0.18447,-1.60241 0.42913,-3.59128 -0.8412,-7.34367 -0.84757,-10.87311 -0.43748,-1.28712 -1.36374,-1.932782 -2.9803,-1.900652 1.03611,-0.42056 2.12438,-0.24496 3.04156,0.599432 0.0143,-0.1352 0.0296,-0.26979 0.0498,-0.401332 0.52904,-3.77079 2.18406,-12.09626 -3.95271,-8.70137 -3.140879,1.74089 -6.844891,10.532912 -6.844891,10.532912 0,0 3.078078,-0.87449 4.433971,-1.15207 -1.964745,0.54407 -3.636758,1.54966 -4.729593,3.40132 -0.02294,0.4368 -0.0265,0.86766 -0.0039,1.28572 0.09132,1.64261 0.74244,3.61277 1.336299,5.34177 0.677822,-0.9566 1.715656,-1.31559 2.985934,-1.44684 -1.06743,0.54394 -1.989048,1.49567 -2.541358,2.62798 l -0.0438,-0.0153 c 0.04225,0.12906 0.08403,0.25541 0.124571,0.37716 1.281496,3.91751 1.700766,6.21132 3.932317,9.39069 1.29426,-1.08574 1.23625,-1.01239 1.57701,-1.56369 z"
       inkscape:connector-curvature="0"
       style="fill:#666666;fill-opacity:1;stroke:none;stroke-width:0.86857224" />
    <path
       id="path6148"
       d="m 112.02708,18.501522 c -5.05696,1.90223 -5.91771,7.78893 -5.91771,7.78893 -1.39766,3.18979 -3.09487,6.23452 -4.07541,9.6312 -0.99686,3.378132 -1.1911,7.120382 -0.67211,10.856332 0.25374,1.86781 0.67282,3.73434 1.20389,5.57603 0.51952,1.84543 1.20432,3.65121 1.78585,5.49035 -0.68261,-1.80264 -1.46761,-3.56822 -2.09434,-5.40191 -0.63954,-1.82741 -1.17305,-3.70044 -1.54177,-5.60584 -0.749067,-3.80302 -0.795166,-7.76673 0.0539,-11.440742 0.84146,-3.66484 3.33181,-5.76567 4.44825,-9.27064 2.44343,-6.52078 4.2171,-6.70217 6.07567,-8.23916 z"
       inkscape:connector-curvature="0"
       style="fill:#666666;fill-opacity:1;stroke:none;stroke-width:0.86857224"
       sodipodi:nodetypes="cccccccccccc" />
    <circle
       style="opacity:1;fill:#636363;fill-opacity:0.43921569;stroke:none;stroke-width:0.21179239;stroke-miterlimit:4;stroke-dasharray:none;stroke-dashoffset:0;stroke-opacity:1"
       id="path6274"
       cx="89.962975"
       cy="147.33665"
       r="18.831491" />
  </g>
  <g
     inkscape:groupmode="layer"
     id="layer2"
     inkscape:label="Layer 2"
     style="display:inline">
    <path
       style="fill:#666666;fill-opacity:1;stroke:none;stroke-width:0.86857224"
       inkscape:connector-curvature="0"
       d="m 77.832413,160.41404 c -0.89361,1.44237 -0.63641,1.65184 -0.90132,2.44071 7.060807,2.92082 11.596229,2.04346 13.31017,3.28609 -1.394823,-4.96828 -8.277723,-6.85598 -8.21848,-10.86442 -1.193169,-1.2327 -2.18119,-1.25422 -3.54678,-2.08096 1.14114,-0.33074 2.65755,0.43399 3.63478,1.31835 0.0619,-0.54578 0.1226,-1.08192 0.18447,-1.60241 0.177065,-4.72557 -1.136922,-8.67442 -0.84757,-10.87311 -0.43748,-1.28712 -1.36374,-1.93278 -2.9803,-1.90065 1.03611,-0.42056 2.12438,-0.24496 3.04156,0.59943 0.0143,-0.1352 0.0296,-0.26979 0.0498,-0.40133 0.346713,-2.47123 2.102652,-7.31008 1.832051,-9.52411 -0.138024,-1.12929 -2.949868,-1.27289 -5.064834,-0.10288 -3.104062,1.33588 -6.9415,8.09882 -7.153431,10.43006 0,0 2.461001,-0.97733 3.816891,-1.25491 -1.96474,0.54407 -3.431067,2.68097 -4.5239,4.53263 -0.02294,0.4368 -0.0265,0.86766 -0.0039,1.28572 -0.62228,2.53461 0.3852,4.05932 1.336303,5.34177 0.67782,-0.9566 1.71565,-1.31559 2.98593,-1.44684 -1.06743,0.54394 -1.98905,1.49567 -2.54136,2.62798 l -0.0438,-0.0153 c 0.0422,0.12906 0.084,0.25541 0.12457,0.37716 0.202999,4.78031 1.546694,6.33458 3.93232,9.39069 1.29426,-1.08574 1.23625,-1.01239 1.57701,-1.56369 z"
       id="path6272"
       sodipodi:nodetypes="cccccccccccsccccccccccccc" />
    <path
       sodipodi:nodetypes="cccccccccccsccccccccccccc"
       id="path6328"
       d="m 100.67001,133.82561 c 0.89361,-1.44237 0.63641,-1.65184 0.90132,-2.44071 -7.060799,-2.92082 -11.596221,-2.04346 -13.310162,-3.28609 1.394823,4.96828 8.277723,6.85598 8.21848,10.86442 1.193169,1.2327 2.18119,1.25422 3.546772,2.08096 -1.141132,0.33074 -2.657542,-0.43399 -3.634772,-1.31835 -0.0619,0.54578 -0.1226,1.08192 -0.18447,1.60241 -0.177065,4.72557 1.136922,8.67442 0.84757,10.87311 0.43748,1.28712 1.36374,1.93278 2.980292,1.90065 -1.036104,0.42056 -2.124372,0.24496 -3.041552,-0.59943 -0.0143,0.1352 -0.0296,0.26979 -0.0498,0.40133 -0.346713,2.47123 -2.102652,7.31008 -1.832051,9.52411 0.138024,1.12929 2.949868,1.27289 5.064833,0.10288 3.10406,-1.33588 6.9415,-8.09882 7.15343,-10.43006 0,0 -2.461,0.97733 -3.81689,1.25491 1.96474,-0.54407 3.43107,-2.68097 4.5239,-4.53263 0.0229,-0.4368 0.0265,-0.86766 0.004,-1.28572 0.62228,-2.53461 -0.3852,-4.05932 -1.3363,-5.34177 -0.67782,0.9566 -1.71565,1.31559 -2.98594,1.44684 1.06744,-0.54394 1.98906,-1.49567 2.54137,-2.62798 l 0.0438,0.0153 c -0.0422,-0.12906 -0.084,-0.25541 -0.12457,-0.37716 -0.203,-4.78031 -1.5467,-6.33458 -3.93233,-9.39069 -1.29426,1.08574 -1.23625,1.01239 -1.57701,1.56369 z"
       inkscape:connector-curvature="0"
       style="fill:#666666;fill-opacity:1;stroke:none;stroke-width:0.86857224" />
    <path
       id="path6148-1"
       d="m 89.256758,125.48232 c -3.894647,-0.10677 -6.072327,3.58953 -6.072327,3.58953 -1.801827,1.74934 -3.764177,3.32026 -5.343817,5.32132 -1.585494,1.98425 -2.734197,4.43017 -3.404939,7.0661 -0.339168,1.31628 -0.567586,2.67674 -0.71446,4.0511 -0.155606,1.37371 -0.190052,2.76596 -0.302539,4.15236 0.03505,-1.38956 -0.0083,-2.78224 0.07247,-4.17731 0.07056,-1.39436 0.224336,-2.79031 0.496965,-4.163 0.535375,-2.74337 1.5839,-5.40261 3.151268,-7.62467 1.559795,-2.21799 3.794725,-2.94266 5.494592,-4.97904 3.40715,-3.68878 4.64087,-3.32694 6.300407,-3.84716 z"
       inkscape:connector-curvature="0"
       style="display:inline;fill:#666666;fill-opacity:1;stroke:none;stroke-width:0.6263423"
       sodipodi:nodetypes="cccccccccccc" />
    <path
       sodipodi:nodetypes="cccccccccccc"
       style="display:inline;fill:#666666;fill-opacity:1;stroke:none;stroke-width:0.6263423"
       inkscape:connector-curvature="0"
       d="m 90.674788,168.12368 c 3.894657,0.10677 6.072337,-3.58953 6.072337,-3.58953 1.801827,-1.74934 3.764165,-3.32026 5.343815,-5.32132 1.5855,-1.98425 2.7342,-4.43017 3.40495,-7.0661 0.33917,-1.31628 0.56759,-2.67674 0.71446,-4.0511 0.15561,-1.37371 0.19005,-2.76596 0.30254,-4.15236 -0.035,1.38956 0.008,2.78224 -0.0725,4.17731 -0.0706,1.39436 -0.22434,2.79031 -0.49697,4.163 -0.53537,2.74337 -1.5839,5.40261 -3.15127,7.62467 -1.5598,2.21799 -3.794738,2.94266 -5.494605,4.97904 -3.40714,3.68878 -4.640867,3.32694 -6.300407,3.84716 z"
       id="path6326" />
  </g>
</svg>
