<?xml version="1.0" encoding="UTF-8" standalone="no"?>
<!-- Created with Inkscape (http://www.inkscape.org/) -->

<svg
   xmlns:dc="http://purl.org/dc/elements/1.1/"
   xmlns:cc="http://creativecommons.org/ns#"
   xmlns:rdf="http://www.w3.org/1999/02/22-rdf-syntax-ns#"
   xmlns:svg="http://www.w3.org/2000/svg"
   xmlns="http://www.w3.org/2000/svg"
   xmlns:xlink="http://www.w3.org/1999/xlink"
   xmlns:sodipodi="http://sodipodi.sourceforge.net/DTD/sodipodi-0.dtd"
   xmlns:inkscape="http://www.inkscape.org/namespaces/inkscape"
   width="3.5in"
   height="2in"
   viewBox="0 0 88.9 50.8"
   id="svg6956"
   version="1.1"
   inkscape:version="0.91+devel+osxmenu r12922"
   sodipodi:docname="logo.svg">
  <defs
     id="defs6958">
    <linearGradient
       inkscape:collect="always"
       xlink:href="#linearGradient6898"
       id="linearGradient6926"
       gradientUnits="userSpaceOnUse"
       gradientTransform="matrix(0.39908845,0,0,0.52564256,-495.33646,-282.94422)"
       x1="536.09857"
       y1="452.64798"
       x2="557.01758"
       y2="452.02896" />
    <linearGradient
       inkscape:collect="always"
       id="linearGradient6898">
      <stop
         style="stop-color:#ffffff;stop-opacity:1"
         offset="0"
         id="stop6900" />
      <stop
         style="stop-color:#ffffff;stop-opacity:0"
         offset="1"
         id="stop6902" />
    </linearGradient>
  </defs>
  <sodipodi:namedview
     id="base"
     pagecolor="#ffffff"
     bordercolor="#666666"
     borderopacity="1.0"
     inkscape:pageopacity="0.0"
     inkscape:pageshadow="2"
     inkscape:zoom="1.2863"
     inkscape:cx="176.73561"
     inkscape:cy="44.497767"
     inkscape:document-units="mm"
     inkscape:current-layer="layer1"
     showgrid="false"
     units="in"
     inkscape:window-width="1440"
     inkscape:window-height="814"
     inkscape:window-x="0"
     inkscape:window-y="23"
     inkscape:window-maximized="0" />
  <metadata
     id="metadata6961">
    <rdf:RDF>
      <cc:Work
         rdf:about="">
        <dc:format>image/svg+xml</dc:format>
        <dc:type
           rdf:resource="http://purl.org/dc/dcmitype/StillImage" />
        <dc:title></dc:title>
      </cc:Work>
    </rdf:RDF>
  </metadata>
  <g
     inkscape:label="Layer 1"
     inkscape:groupmode="layer"
     id="layer1"
     transform="translate(0,-246.2)">
    <path
       sodipodi:nodetypes="cccccccccccsccccccccccccc"
       id="path6906"
       d="m 40.505851,269.59941 c -0.353405,0.57042 -0.251687,0.65326 -0.356454,0.96525 2.792399,1.15512 4.586066,0.80814 5.263894,1.29958 -0.551626,-1.96485 -3.273669,-2.7114 -3.250236,-4.29665 -0.471874,-0.48751 -0.862616,-0.49602 -1.402679,-0.82298 0.451297,-0.1308 1.051007,0.17163 1.437481,0.52138 0.02448,-0.21585 0.04849,-0.42788 0.07295,-0.63372 0.07002,-1.86887 -0.449632,-3.43055 -0.335197,-4.30009 -0.173014,-0.50903 -0.53933,-0.76437 -1.178647,-0.75167 0.409761,-0.16632 0.840149,-0.0969 1.202874,0.23707 0.0057,-0.0535 0.01171,-0.1067 0.01969,-0.15872 0.137116,-0.97732 0.831553,-2.89099 0.724537,-3.76659 -0.05459,-0.44661 -1.166611,-0.5034 -2.003037,-0.0407 -1.227591,0.52832 -2.745219,3.20292 -2.829033,4.12488 0,0 0.973274,-0.38652 1.5095,-0.4963 -0.777013,0.21517 -1.356912,1.06027 -1.789108,1.79257 -0.0091,0.17274 -0.01048,0.34314 -0.0016,0.50847 -0.246098,1.00239 0.152339,1.60538 0.528483,2.11256 0.268064,-0.37832 0.678504,-0.52029 1.180873,-0.5722 -0.422146,0.21512 -0.786628,0.59151 -1.005055,1.03931 l -0.01732,-0.006 c 0.01669,0.051 0.03322,0.10101 0.04926,0.14916 0.08028,1.89051 0.611684,2.50519 1.555151,3.71383 0.511853,-0.4294 0.488911,-0.40039 0.623674,-0.61841 z"
       inkscape:connector-curvature="0"
       style="display:inline;fill:#7cb342;fill-opacity:1;stroke:none;stroke-width:0.34350216" />
    <path
       style="display:inline;fill:#ffdc4c;fill-opacity:1;stroke:none;stroke-width:0.34350216"
       inkscape:connector-curvature="0"
       d="m 49.53764,259.08424 c 0.353408,-0.57043 0.251687,-0.65327 0.356457,-0.96525 -2.792399,-1.15513 -4.586067,-0.80815 -5.263894,-1.29958 0.551626,1.96485 3.273669,2.71139 3.250237,4.29665 0.471874,0.48751 0.862615,0.49602 1.402677,0.82298 -0.451297,0.1308 -1.051005,-0.17164 -1.437479,-0.52138 -0.02448,0.21584 -0.04849,0.42787 -0.07295,0.63372 -0.07002,1.86886 0.449628,3.43055 0.335196,4.30008 0.173014,0.50903 0.539331,0.76438 1.178642,0.75167 -0.409755,0.16632 -0.840144,0.0969 -1.202869,-0.23706 -0.0057,0.0535 -0.01171,0.10669 -0.01969,0.15872 -0.137117,0.97732 -0.831554,2.89098 -0.724537,3.76658 0.05459,0.44661 1.166612,0.5034 2.003038,0.0407 1.227591,-0.52832 2.745218,-3.20291 2.829032,-4.12487 0,0 -0.973274,0.38651 -1.5095,0.49629 0.777014,-0.21517 1.356916,-1.06027 1.789108,-1.79256 0.0091,-0.17275 0.01048,-0.34314 0.0016,-0.50848 0.246098,-1.00238 -0.152339,-1.60537 -0.528479,-2.11255 -0.268064,0.37831 -0.678504,0.52028 -1.180877,0.57219 0.42215,-0.21512 0.786632,-0.59151 1.005059,-1.03931 l 0.01732,0.006 c -0.01669,-0.051 -0.03322,-0.10101 -0.04927,-0.14916 -0.08028,-1.89051 -0.611684,-2.50519 -1.555154,-3.71382 -0.511853,0.42939 -0.488911,0.40038 -0.623671,0.61841 z"
       id="path6908"
       sodipodi:nodetypes="cccccccccccsccccccccccccc" />
    <path
       sodipodi:nodetypes="cccccccccccc"
       style="display:inline;fill:#7cb342;fill-opacity:1;stroke:none;stroke-width:0.24770534"
       inkscape:connector-curvature="0"
       d="m 45.023938,255.78464 c -1.540249,-0.0422 -2.401479,1.41958 -2.401479,1.41958 -0.712582,0.69183 -1.488651,1.3131 -2.113366,2.10448 -0.627031,0.78473 -1.081318,1.75204 -1.346582,2.79449 -0.134135,0.52056 -0.22447,1.0586 -0.282554,1.60213 -0.06154,0.54327 -0.07516,1.09388 -0.119649,1.64217 0.01384,-0.54954 -0.0032,-1.10032 0.02867,-1.65204 0.02792,-0.55144 0.08872,-1.10351 0.196537,-1.64638 0.211731,-1.08495 0.626399,-2.13662 1.246261,-3.0154 0.616869,-0.87717 1.500736,-1.16376 2.172996,-1.9691 1.34746,-1.45884 1.835371,-1.31574 2.49168,-1.52148 z"
       id="path6910" />
    <path
       id="path6912"
       d="m 45.584739,272.64841 c 1.540257,0.0422 2.401484,-1.41959 2.401484,-1.41959 0.712582,-0.69182 1.488646,-1.31309 2.113369,-2.10447 0.627032,-0.78473 1.081315,-1.75204 1.346583,-2.79449 0.134134,-0.52056 0.22447,-1.0586 0.282554,-1.60213 0.06154,-0.54327 0.07516,-1.09388 0.119648,-1.64217 -0.01384,0.54954 0.0032,1.10032 -0.02867,1.65204 -0.02792,0.55144 -0.08872,1.10351 -0.196538,1.64638 -0.211731,1.08494 -0.626399,2.13662 -1.246261,3.01539 -0.616872,0.87718 -1.500741,1.16377 -2.173004,1.96911 -1.347452,1.45884 -1.835367,1.31574 -2.49168,1.52147 z"
       inkscape:connector-curvature="0"
       style="display:inline;fill:#ffdc4c;fill-opacity:1;stroke:none;stroke-width:0.24770534"
       sodipodi:nodetypes="cccccccccccc" />
    <g
       style="opacity:0.222"
       id="g6914"
       transform="matrix(0.39547911,0,0,0.39547911,-165.50538,106.17868)">
      <path
         sodipodi:nodetypes="cccccccccccsccccccccccccc"
         id="path6916"
         d="m 521.34907,427.71692 c -0.89361,-1.44237 -0.63641,-1.65184 -0.90132,-2.44071 7.0608,-2.92082 11.59623,-2.04346 13.31017,-3.28609 -1.39483,4.96828 -8.27773,6.85599 -8.21848,10.86442 -1.19317,1.2327 -2.18119,1.25422 -3.54678,2.08096 1.14114,0.33074 2.65755,-0.43399 3.63478,-1.31835 0.0619,0.54578 0.1226,1.08193 0.18447,1.60241 0.17706,4.72557 -1.13693,8.67442 -0.84757,10.87311 -0.43748,1.28712 -1.36374,1.93278 -2.9803,1.90065 1.03611,0.42056 2.12438,0.24496 3.04156,-0.59943 0.0143,0.1352 0.0296,0.26979 0.0498,0.40133 0.34671,2.47123 2.10265,7.31008 1.83205,9.52411 -0.13803,1.12929 -2.94987,1.27289 -5.06484,0.10288 -3.10406,-1.33588 -6.9415,-8.09882 -7.15343,-10.43006 0,0 2.461,0.97733 3.81689,1.25491 -1.96474,-0.54407 -3.43106,-2.68097 -4.5239,-4.53263 -0.0229,-0.4368 -0.0265,-0.86766 -0.004,-1.28572 -0.62228,-2.53461 0.3852,-4.05932 1.33631,-5.34177 0.67782,0.9566 1.71565,1.31559 2.98593,1.44684 -1.06743,-0.54394 -1.98905,-1.49567 -2.54136,-2.62797 l -0.0438,0.0153 c 0.0422,-0.12906 0.084,-0.25542 0.12457,-0.37716 0.203,-4.78031 1.54669,-6.33458 3.93232,-9.3907 1.29426,1.08576 1.23625,1.0124 1.57701,1.56369 z"
         inkscape:connector-curvature="0"
         style="display:inline;fill:#7cb342;fill-opacity:1;stroke:none;stroke-width:0.86857224" />
      <path
         style="display:inline;fill:#ffdc4c;fill-opacity:1;stroke:none;stroke-width:0.86857224"
         inkscape:connector-curvature="0"
         d="m 544.18666,454.30535 c 0.89362,1.44237 0.63641,1.65184 0.90133,2.44071 -7.0608,2.92082 -11.59623,2.04346 -13.31017,3.28609 1.39483,-4.96828 8.27773,-6.85598 8.21848,-10.86442 1.19317,-1.2327 2.18119,-1.25422 3.54678,-2.08096 -1.14114,-0.33074 -2.65755,0.43399 -3.63478,1.31835 -0.0619,-0.54578 -0.1226,-1.08192 -0.18447,-1.60241 -0.17706,-4.72557 1.13692,-8.67442 0.84757,-10.87311 0.43748,-1.28712 1.36374,-1.93278 2.98029,-1.90065 -1.0361,-0.42056 -2.12437,-0.24495 -3.04155,0.59943 -0.0143,-0.1352 -0.0296,-0.26979 -0.0498,-0.40133 -0.34671,-2.47123 -2.10265,-7.31008 -1.83205,-9.52411 0.13803,-1.12929 2.94987,-1.27289 5.06484,-0.10288 3.10406,1.33589 6.9415,8.09882 7.15343,10.43006 0,0 -2.461,-0.97733 -3.81689,-1.25491 1.96474,0.54407 3.43107,2.68097 4.5239,4.53263 0.0229,0.4368 0.0265,0.86766 0.004,1.28572 0.62228,2.53461 -0.3852,4.05932 -1.3363,5.34177 -0.67782,-0.9566 -1.71565,-1.31559 -2.98594,-1.44684 1.06744,0.54394 1.98906,1.49567 2.54137,2.62798 l 0.0438,-0.0153 c -0.0422,0.12906 -0.084,0.25541 -0.12458,0.37716 -0.20299,4.78031 -1.54669,6.33458 -3.93233,9.39069 -1.29426,-1.08574 -1.23625,-1.01239 -1.577,-1.56369 z"
         id="path6918"
         sodipodi:nodetypes="cccccccccccsccccccccccccc" />
      <path
         sodipodi:nodetypes="cccccccccccc"
         style="display:inline;fill:#7cb342;fill-opacity:1;stroke:none;stroke-width:0.62634242"
         inkscape:connector-curvature="0"
         d="m 532.77341,462.64864 c -3.89464,0.10677 -6.07233,-3.58953 -6.07233,-3.58953 -1.80182,-1.74934 -3.76417,-3.32026 -5.34381,-5.32132 -1.5855,-1.98425 -2.7342,-4.43017 -3.40494,-7.0661 -0.33917,-1.31628 -0.56759,-2.67674 -0.71446,-4.0511 -0.15561,-1.37371 -0.19005,-2.76596 -0.30254,-4.15236 0.035,1.38956 -0.008,2.78224 0.0725,4.17731 0.0706,1.39436 0.22434,2.79031 0.49696,4.163 0.53538,2.74337 1.5839,5.40261 3.15127,7.62467 1.5598,2.21799 3.79473,2.94266 5.49459,4.97904 3.40716,3.68878 4.64088,3.32694 6.30041,3.84716 z"
         id="path6920" />
      <path
         id="path6922"
         d="m 534.19144,420.00728 c 3.89466,-0.10677 6.07234,3.58953 6.07234,3.58953 1.80182,1.74934 3.76416,3.32026 5.34382,5.32132 1.5855,1.98425 2.73419,4.43017 3.40494,7.0661 0.33917,1.31628 0.56759,2.67674 0.71446,4.0511 0.15561,1.37371 0.19005,2.76596 0.30254,4.15236 -0.035,-1.38956 0.008,-2.78224 -0.0725,-4.17731 -0.0706,-1.39436 -0.22434,-2.79031 -0.49696,-4.16299 -0.53538,-2.74338 -1.5839,-5.40262 -3.15127,-7.62467 -1.55981,-2.218 -3.79474,-2.94267 -5.49461,-4.97904 -3.40714,-3.68879 -4.64087,-3.32695 -6.30041,-3.84717 z"
         inkscape:connector-curvature="0"
         style="display:inline;fill:#ffdc4c;fill-opacity:1;stroke:none;stroke-width:0.62634242"
         sodipodi:nodetypes="cccccccccccc" />
    </g>
    <rect
       transform="matrix(0,-1,-1,0,0,0)"
       y="-53.805508"
       x="-289.52045"
       height="16.933964"
       width="16.483273"
       id="rect6924"
       style="opacity:1;fill:url(#linearGradient6926);fill-opacity:1;stroke:none;stroke-width:0.6709922;stroke-miterlimit:4;stroke-dasharray:none;stroke-dashoffset:0;stroke-opacity:1" />
    <text
       sodipodi:linespacing="125%"
       id="text6928"
       y="283.91623"
       x="28.803469"
       style="font-style:normal;font-variant:normal;font-weight:normal;font-stretch:normal;font-size:20.09033775px;line-height:125%;font-family:'Sinhala MN';-inkscape-font-specification:'Sinhala MN';letter-spacing:0px;word-spacing:0px;fill:#05294d;fill-opacity:1;stroke:none;stroke-width:0.30362797px;stroke-linecap:butt;stroke-linejoin:miter;stroke-opacity:1;"
       xml:space="preserve"><tspan
         style="font-style:normal;font-variant:normal;font-weight:normal;font-stretch:normal;font-size:20.09033775px;font-family:'Sinhala MN';-inkscape-font-specification:'Sinhala MN';fill:#05294d;fill-opacity:1;stroke-width:0.30362797px;"
         y="283.91623"
         x="28.803469"
         id="tspan6930"
         sodipodi:role="line">duet</tspan></text>
  </g>
</svg>
