<?xml version="1.0" encoding="UTF-8" standalone="no"?>
<!-- Created with Inkscape (http://www.inkscape.org/) -->

<svg
   xmlns:dc="http://purl.org/dc/elements/1.1/"
   xmlns:cc="http://creativecommons.org/ns#"
   xmlns:rdf="http://www.w3.org/1999/02/22-rdf-syntax-ns#"
   xmlns:svg="http://www.w3.org/2000/svg"
   xmlns="http://www.w3.org/2000/svg"
   xmlns:sodipodi="http://sodipodi.sourceforge.net/DTD/sodipodi-0.dtd"
   xmlns:inkscape="http://www.inkscape.org/namespaces/inkscape"
   width="1.1292782in"
   height="1.1694707in"
   viewBox="0 0 28.683666 29.704555"
   id="svg6956"
   version="1.1"
   inkscape:version="0.91+devel+osxmenu r12922"
   sodipodi:docname="logo.svg"
   inkscape:export-filename="/Users/chris/Work/duet/logo.png"
   inkscape:export-xdpi="536.62604"
   inkscape:export-ydpi="536.62604">
  <defs
     id="defs6958" />
  <sodipodi:namedview
     id="base"
     pagecolor="#ffffff"
     bordercolor="#666666"
     borderopacity="1.0"
     inkscape:pageopacity="0.0"
     inkscape:pageshadow="2"
     inkscape:zoom="1.2863"
     inkscape:cx="-64.443639"
     inkscape:cy="-4.3594865"
     inkscape:document-units="mm"
     inkscape:current-layer="layer1"
     showgrid="false"
     units="in"
     inkscape:window-width="1440"
     inkscape:window-height="814"
     inkscape:window-x="0"
     inkscape:window-y="23"
     inkscape:window-maximized="0"
     fit-margin-top="0"
     fit-margin-left="0"
     fit-margin-right="0"
     fit-margin-bottom="0" />
  <metadata
     id="metadata6961">
    <rdf:RDF>
      <cc:Work
         rdf:about="">
        <dc:format>image/svg+xml</dc:format>
        <dc:type
           rdf:resource="http://purl.org/dc/dcmitype/StillImage" />
        <dc:title></dc:title>
      </cc:Work>
    </rdf:RDF>
  </metadata>
  <g
     inkscape:label="Layer 1"
     inkscape:groupmode="layer"
     id="layer1"
     transform="translate(-30.901076,-254.36863)">
    <text
       sodipodi:linespacing="125%"
       id="text6928"
       y="283.91623"
       x="30.39097"
       style="font-style:normal;font-variant:normal;font-weight:normal;font-stretch:normal;font-size:20.09033775px;line-height:125%;font-family:'Sinhala MN';-inkscape-font-specification:'Sinhala MN';letter-spacing:0px;word-spacing:0px;fill:#05294d;fill-opacity:1;stroke:none;stroke-width:0.30362797px;stroke-linecap:butt;stroke-linejoin:miter;stroke-opacity:1"
       xml:space="preserve"><tspan
         style="font-style:normal;font-variant:normal;font-weight:normal;font-stretch:normal;font-size:20.09033775px;font-family:'Sinhala MN';-inkscape-font-specification:'Sinhala MN';fill:#05294d;fill-opacity:1;stroke-width:0.30362797px"
         y="283.91623"
         x="30.39097"
         id="tspan6930"
         sodipodi:role="line">duet</tspan></text>
    <path
       inkscape:connector-curvature="0"
       id="path9442"
       style="display:inline;fill:#ffdc4c;fill-opacity:1;fill-rule:nonzero;stroke:none;stroke-width:0.00755317"
       d="m 54.719659,262.03117 c -0.134974,0.30787 -0.272743,0.60856 -0.638315,0.78017 0,0 0.509611,-0.80668 0.294796,-1.74101 -0.320176,-1.39167 -1.179575,-3.01537 -2.512259,-4.19503 0,0 1.174443,3.05367 -1.94494,5.76738 -1.013033,0.8813 -2.180373,1.64032 -2.964468,2.63938 -0.903963,1.152 -0.550401,2.64504 -0.550401,2.64504 -0.232032,-0.57457 -0.348954,-1.09 -0.38317,-1.55082 -1.008275,1.38722 -1.39711,2.94733 -0.623967,5.0283 6.112251,-2.95661 7.185253,-6.24798 7.379749,-7.49788 -0.178787,1.35021 -1.234187,4.76318 -7.13601,7.87811 0,0 -2.062542,1.30987 -2.395337,2.85328 0,0 0.395938,-0.19442 0.683412,-0.10431 0,0 0.706824,-1.90559 1.954909,-2.49254 0,0 0.991357,0.79806 2.500708,0.77231 1.406625,-0.0239 3.616984,-0.75796 4.935317,-2.36898 -0.431742,0.10537 -0.947244,0.14495 -1.563284,0.0804 0,0 2.046382,-0.21224 2.837651,-2.25704 0.687567,-1.77695 0.601385,-4.10545 0.125609,-6.2368" />
    <path
       d="m 38.666287,266.97555 c 0.134973,-0.30787 0.272742,-0.60856 0.638315,-0.78017 0,0 -0.509612,0.80668 -0.294797,1.74101 0.320176,1.39167 1.179575,3.01537 2.512259,4.19503 0,0 -1.174443,-3.05367 1.944941,-5.76738 1.013032,-0.8813 2.180372,-1.64032 2.964467,-2.63938 0.903963,-1.152 0.550401,-2.64504 0.550401,-2.64504 0.232033,0.57457 0.348955,1.09 0.38317,1.55082 1.008275,-1.38722 1.39711,-2.94733 0.623968,-5.0283 -6.112251,2.95661 -7.185253,6.24798 -7.37975,7.49788 0.178787,-1.35021 1.234187,-4.76318 7.136011,-7.8781 0,0 2.062542,-1.30987 2.395337,-2.85329 0,0 -0.395939,0.19442 -0.683412,0.10431 0,0 -0.706825,1.90559 -1.95491,2.49254 0,0 -0.991357,-0.79806 -2.500707,-0.77231 -1.406626,0.0239 -3.616985,0.75796 -4.935317,2.36898 0.431741,-0.10537 0.947243,-0.14495 1.563283,-0.0804 0,0 -2.046382,0.21224 -2.837651,2.25704 -0.687565,1.77695 -0.601384,4.10545 -0.125608,6.2368"
       style="display:inline;fill:#7cb342;fill-opacity:1;fill-rule:nonzero;stroke:none;stroke-width:0.00755317"
       id="path9459"
       inkscape:connector-curvature="0" />
  </g>
</svg>
