<?xml version="1.0" encoding="UTF-8" standalone="no"?>
<svg
   xmlns:dc="http://purl.org/dc/elements/1.1/"
   xmlns:cc="http://creativecommons.org/ns#"
   xmlns:rdf="http://www.w3.org/1999/02/22-rdf-syntax-ns#"
   xmlns:svg="http://www.w3.org/2000/svg"
   xmlns="http://www.w3.org/2000/svg"
   id="svg1055"
   version="1.1"
   viewBox="0 0 34.503162 50.77182"
   height="50.77182mm"
   width="34.503162mm">
  <defs
     id="defs1049" />
  <metadata
     id="metadata1052">
    <rdf:RDF>
      <cc:Work
         rdf:about="">
        <dc:format>image/svg+xml</dc:format>
        <dc:type
           rdf:resource="http://purl.org/dc/dcmitype/StillImage" />
        <dc:title></dc:title>
      </cc:Work>
    </rdf:RDF>
  </metadata>
  <g
     transform="translate(431.51349,118.45734)"
     id="layer1">
    <path
       d="m -397.85759,-96.278038 c -0.30612,0.69824 -0.61858,1.38021 -1.4477,1.76942 0,0 1.1558,-1.82955 0.6686,-3.94861 -0.72616,-3.156312 -2.67528,-6.838882 -5.69781,-9.514332 0,0 2.66364,6.92573 -4.41113,13.080412 -2.29756,1.9988 -4.94509,3.72026 -6.72342,5.98612 -2.05019,2.61276 -1.24831,5.998969 -1.24831,5.998969 -0.52625,-1.303128 -0.79143,-2.472118 -0.86903,-3.517259 -2.28677,3.14621 -3.16865,6.684541 -1.41516,11.40419 13.8626,-6.7056 16.29617,-14.170441 16.73729,-17.00521 -0.40549,3.062271 -2.79914,10.8029 -16.18449,17.867571 0,0 -4.67785,2.97079 -5.43263,6.471248 0,0 0.89799,-0.440938 1.54998,-0.236569 0,0 1.60308,-4.321879 4.43374,-5.653101 0,0 2.2484,1.810023 5.67161,1.751603 3.19023,-0.0541 8.20333,-1.719051 11.19331,-5.372841 -0.97919,0.238969 -2.14835,0.328739 -3.54553,0.182441 0,0 4.6412,-0.481373 6.4358,-5.118971 1.5594,-4.030141 1.36394,-9.311171 0.28488,-14.145081"
       style="display:inline;fill:#ffdc4c;fill-opacity:1;fill-rule:nonzero;stroke:none;stroke-width:0.01713061"
       id="path9442" />
    <path
       id="path9459"
       style="display:inline;fill:#7cb342;fill-opacity:1;fill-rule:nonzero;stroke:none;stroke-width:0.01713061"
       d="m -430.66622,-89.864817 c 0.30612,-0.698241 0.61858,-1.38021 1.4477,-1.76942 0,0 -1.1558,1.829549 -0.6686,3.94861 0.72616,3.15631 2.67528,6.838879 5.69781,9.514329 0,0 -2.66364,-6.92573 4.41113,-13.08041 2.29756,-1.9988 4.94509,-3.72026 6.72342,-5.98612 2.05019,-2.61276 1.24831,-5.998972 1.24831,-5.998972 0.52625,1.30313 0.79143,2.47212 0.86903,3.517262 2.28677,-3.146212 3.16865,-6.684542 1.41516,-11.404192 -13.8626,6.7056 -16.29617,14.170442 -16.73729,17.005212 0.40549,-3.06227 2.79914,-10.802902 16.18449,-17.867562 0,0 4.67785,-2.97079 5.43263,-6.47126 0,0 -0.89799,0.44094 -1.54998,0.23657 0,0 -1.60308,4.32188 -4.43374,5.6531 0,0 -2.2484,-1.81002 -5.67161,-1.7516 -3.19023,0.0541 -8.20333,1.71905 -11.19331,5.37284 0.97919,-0.23897 2.14835,-0.32874 3.54553,-0.18244 0,0 -4.6412,0.48137 -6.4358,5.11897 -1.5594,4.030142 -1.36394,9.311172 -0.28488,14.145083" />
  </g>
</svg>
